<?xml version="1.0" standalone="no"?>
<!DOCTYPE svg PUBLIC "-//W3C//DTD SVG 20010904//EN"
 "http://www.w3.org/TR/2001/REC-SVG-20010904/DTD/svg10.dtd">
<svg version="1.0" xmlns="http://www.w3.org/2000/svg"
 width="16.000000pt" height="16.000000pt" viewBox="0 0 16.000000 16.000000"
 preserveAspectRatio="xMidYMid meet">
<metadata>
Created by potrace 1.11, written by Peter Selinger 2001-2013
</metadata>
<g transform="translate(0.000000,16.000000) scale(0.005714,-0.005714)"
fill="#000000" stroke="none">
<path d="M692 2433 l3 -158 175 0 175 0 3 158 3 157 -181 0 -181 0 3 -157z"/>
<path d="M1918 2078 l-3 -513 -432 -2 -433 -2 0 119 0 118 -180 0 -180 0 0
-796 0 -797 168 2 c92 0 173 2 179 2 10 1 13 111 15 498 l3 497 420 1 c231 0
426 -1 433 -3 9 -3 12 -112 12 -498 0 -388 3 -494 13 -495 51 -4 330 -3 337 1
4 3 7 539 7 1193 l0 1187 -178 0 -179 0 -2 -512z"/>
<path d="M280 2207 c-51 -13 -86 -42 -109 -90 -21 -43 -21 -55 -21 -704 0
-690 1 -703 44 -752 46 -51 87 -61 271 -61 l170 0 -2 157 c-1 87 -2 168 -2
180 -1 21 -5 23 -56 22 -31 -1 -59 1 -62 5 -7 7 -12 861 -5 882 2 9 175 12
660 12 361 1 665 1 675 1 15 1 17 16 17 179 l0 177 -773 1 c-425 0 -789 -4
-807 -9z"/>
<path d="M2335 2038 c0 -178 0 -178 23 -179 29 -1 200 -1 255 0 l42 1 -1 168
c-1 92 -2 172 -3 178 -1 6 -56 10 -158 10 l-158 0 0 -178z"/>
<path d="M1110 780 l0 -180 375 0 375 0 0 179 0 180 -375 0 -375 1 0 -180z"/>
<path d="M2338 947 c-2 -7 -3 -86 -3 -177 l1 -165 159 0 160 0 0 178 0 177
-157 -1 c-111 0 -157 -4 -160 -12z"/>
</g>
</svg>
