<svg version="1" xmlns="http://www.w3.org/2000/svg" width="21.333" height="21.333" viewBox="0 0 16.000000 16.000000"><path d="M3.954 2.098L3.971 3h2l.017-.903.017-.897H3.937l.017.897zm7.006 2.028l-.018 2.932-2.468.011L6 7.08V5.726H3.943v9.104l.96-.012c.525 0 .988-.011 1.022-.011.058-.006.075-.634.086-2.846l.017-2.84 2.4-.005c1.32 0 2.434.005 2.474.017.052.017.069.64.069 2.845 0 2.217.017 2.823.074 2.829.292.023 1.886.017 1.926-.006.023-.017.04-3.08.04-6.817V1.201h-2.04l-.012 2.925z"/><path d="M1.6 3.39a.897.897 0 0 0-.623.513c-.12.246-.12.315-.12 4.023 0 3.943.006 4.017.252 4.297.262.291.497.349 1.548.349h.971l-.011-.897-.011-1.029c-.006-.12-.029-.131-.32-.126-.178.006-.338-.005-.355-.028-.04-.04-.068-4.92-.028-5.04.011-.051 1-.069 3.771-.069 2.063-.005 3.8-.005 3.857-.005.086-.006.097-.092.097-1.023V3.343l-4.417-.005c-2.428 0-4.508.023-4.611.051zm11.742.965c0 1.017 0 1.017.132 1.023.165.005 1.142.005 1.457 0l.24-.006-.006-.96a36.189 36.189 0 0 0-.017-1.017c-.006-.034-.32-.057-.903-.057h-.903v1.017zm-6.999 7.188v1.029h4.285V10.52H8.485l-2.142-.005v1.028zm7.017-.954c-.012.04-.018.491-.018 1.011l.006.943h1.823v-2.028l-.897.005c-.635 0-.898.023-.915.069z"/></svg>